:FULLY-SPECIFIED
:FORCE-ALL-JOINTS-BE-3DOF
:DEGREES
781
root 1.63772 16.3567 18.6836 -11.7731 75.3723 -18.061
lfemur -36.67 13.0235 -13.7614
ltibia 49.6244 -0 0
lfoot -21.6043 20.5203 -0.014514
ltoes 16.2608 -0 0
rfemur -14.9838 -22.1077 21.3691
rtibia 51.2167 -0 0
rfoot -18.0867 -32.006 -0.0133068
rtoes -25.2408 0 0
lowerback 1.11007 4.7377 -0.736346
upperback -0.891458 6.3015 -3.72004
thorax -1.19126 3.16242 -3.52634
lowerneck -5.3384 -6.52193 -0.580001
upperneck -2.41171 -8.58761 5.03626
head 0.403842 -4.22314 1.47354
lclavicle 5.83748e-15 -9.6968e-18 -4.26686e-34
lhumerus -55.7215 -11.5005 94.7018
lradius 70.1755 -0 0
lwrist 13.0467 0 0
lhand -20.9182 -4.82446 0.0329846
lfingers 7.12502 -0 0
lthumb 5.45291 25.0729 0.0291637
rclavicle 5.83748e-15 -9.6968e-18 -4.26686e-34
rhumerus -30.6261 48.0525 -112.384
rradius 79.7929 -0 0
rwrist 5.7128 0 0
rhand -23.4822 -20.1486 -0.00703828
rfingers 7.12502 -0 0
rthumb 2.97684 -50.0911 -0.00362029
782
root 1.65141 16.3614 18.8056 -9.8778 73.4011 -16.2747
lfemur -36.5804 12.6935 -13.3061
ltibia 48.8078 -0 0
lfoot -21.252 20.4029 -0.028306
ltoes 16.3591 -0 0
rfemur -14.4014 -21.3961 21.2448
rtibia 50.3968 -0 0
rfoot -18.1648 -31.5216 -0.0259542
rtoes -25.2895 0 0
lowerback 1.07483 4.79305 -0.569123
upperback -0.881228 6.37845 -3.62627
thorax -1.1458 3.20079 -3.51553
lowerneck -5.34512 -6.39381 -0.479174
upperneck -2.33224 -8.42786 4.93834
head 0.421115 -4.14318 1.43071
lclavicle 5.71142e-15 -1.93936e-17 -8.32038e-34
lhumerus -55.6622 -11.3608 94.585
lradius 69.7173 -0 0
lwrist 13.1711 0 0
lhand -20.5542 -4.56668 0.0643324
lfingers 7.12502 -0 0
lthumb 5.80394 25.3094 0.0568791
rclavicle 5.71142e-15 -1.93936e-17 -8.32038e-34
rhumerus -30.588 47.9777 -112.262
rradius 79.4696 -0 0
rwrist 5.50172 0 0
rhand -23.0574 -20.1958 -0.0137271
rfingers 7.12502 -0 0
rthumb 3.38642 -50.1163 -0.00706071
783
root 1.66511 16.366 18.9277 -8.37175 71.4166 -14.8782
lfemur -36.4936 12.3629 -12.852
ltibia 47.9913 -0 0
lfoot -20.8997 20.2853 -0.0413756
ltoes 16.4575 -0 0
rfemur -13.8233 -20.6834 21.1289
rtibia 49.577 -0 0
rfoot -18.2429 -31.0373 -0.0379415
rtoes -25.3382 0 0
lowerback 1.03976 4.84849 -0.401919
upperback -0.87087 6.45539 -3.53248
thorax -1.10034 3.23915 -3.50469
lowerneck -5.3516 -6.26567 -0.378387
upperneck -2.25308 -8.26798 4.84068
head 0.438327 -4.0632 1.38792
lclavicle 5.58536e-15 -2.90904e-17 -1.21606e-33
lhumerus -55.6032 -11.2209 94.4685
lradius 69.2591 -0 0
lwrist 13.2956 0 0
lhand -20.1901 -4.30871 0.0940414
lfingers 7.12502 -0 0
lthumb 6.15507 25.5461 0.0831446
rclavicle 5.58536e-15 -2.90904e-17 -1.21606e-33
rhumerus -30.5503 47.9029 -112.14
rradius 79.1464 -0 0
rwrist 5.29065 0 0
rhand -22.6327 -20.243 -0.020066
rfingers 7.12502 -0 0
rthumb 3.796 -50.1415 -0.0103211
784
root 1.6788 16.3706 19.0498 -7.14381 69.4227 -13.7604
lfemur -36.4095 12.0316 -12.3989
ltibia 47.1747 -0 0
lfoot -20.5473 20.1677 -0.0537221
ltoes 16.5559 -0 0
rfemur -13.2494 -19.9696 21.0212
rtibia 48.7571 -0 0
rfoot -18.3212 -30.5529 -0.0492676
rtoes -25.3868 0 0
lowerback 1.00484 4.90404 -0.234736
upperback -0.860382 6.53231 -3.43865
thorax -1.05486 3.27749 -3.49381
lowerneck -5.35786 -6.13753 -0.277639
upperneck -2.17424 -8.10796 4.74329
head 0.455478 -3.98321 1.34515
lclavicle 5.45931e-15 -3.87872e-17 -1.57874e-33
lhumerus -55.5445 -11.0808 94.3522
lradius 68.8009 -0 0
lwrist 13.4201 0 0
lhand -19.8258 -4.05055 0.12211
lfingers 7.12502 -0 0
lthumb 6.50631 25.7829 0.107959
rclavicle 5.45931e-15 -3.87872e-17 -1.57874e-33
rhumerus -30.5128 47.8281 -112.018
rradius 78.8232 -0 0
rwrist 5.07957 0 0
rhand -22.2079 -20.2903 -0.0260547
rfingers 7.12502 -0 0
rthumb 4.20558 -50.1667 -0.0134013
785
root 1.6925 16.3752 19.1719 -6.12104 67.4218 -12.8485
lfemur -36.3282 11.6996 -11.9469
ltibia 46.3581 -0 0
lfoot -20.1949 20.05 -0.0653451
ltoes 16.6543 -0 0
rfemur -12.6795 -19.2548 20.9215
rtibia 47.9373 -0 0
rfoot -18.3995 -30.0685 -0.0599318
rtoes -25.4355 0 0
lowerback 0.970076 4.95969 -0.0675736
upperback -0.849766 6.60922 -3.34479
thorax -1.00937 3.31583 -3.48291
lowerneck -5.36388 -6.00938 -0.176928
upperneck -2.09569 -7.94781 4.64616
head 0.472567 -3.90321 1.30241
lclavicle 5.33325e-15 -4.8484e-17 -1.92009e-33
lhumerus -55.4861 -10.9407 94.2361
lradius 68.3428 -0 0
lwrist 13.5446 0 0
lhand -19.4614 -3.79221 0.148536
lfingers 7.12502 -0 0
lthumb 6.85765 26.0199 0.131321
rclavicle 5.33325e-15 -4.8484e-17 -1.92009e-33
rhumerus -30.4756 47.7531 -111.897
rradius 78.5 -0 0
rwrist 4.8685 0 0
rhand -21.7831 -20.3376 -0.0316928
rfingers 7.12502 -0 0
rthumb 4.61517 -50.192 -0.0163011
786
root 1.7062 16.3799 19.2939 -5.2537 65.4156 -12.0928
lfemur -36.2497 11.3671 -11.4959
ltibia 45.5415 -0 0
lfoot -19.8425 19.9323 -0.0762439
ltoes 16.7527 -0 0
rfemur -12.1134 -18.5391 20.8298
rtibia 47.1175 -0 0
rfoot -18.478 -29.5841 -0.0699333
rtoes -25.4842 0 0
lowerback 0.935477 5.01544 0.0995696
upperback -0.839021 6.68611 -3.2509
thorax -0.963877 3.35417 -3.47197
lowerneck -5.36969 -5.88121 -0.0762553
upperneck -2.01745 -7.78752 4.54929
head 0.489595 -3.82319 1.25969
lclavicle 5.20719e-15 -5.81808e-17 -2.2401e-33
lhumerus -55.428 -10.8005 94.1201
lradius 67.8846 -0 0
lwrist 13.6691 0 0
lhand -19.0968 -3.53372 0.173319
lfingers 7.12502 -0 0
lthumb 7.20908 26.257 0.153229
rclavicle 5.20719e-15 -5.81808e-17 -2.2401e-33
rhumerus -30.4386 47.6781 -111.776
rradius 78.1767 -0 0
rwrist 4.65742 0 0
rhand -21.3584 -20.3849 -0.0369801
rfingers 7.12502 -0 0
rthumb 5.02475 -50.2172 -0.0190204
787
root 1.7199 16.3845 19.416 -4.50676 63.4054 -11.4584
lfemur -36.174 11.0339 -11.0459
ltibia 44.7249 -0 0
lfoot -19.49 19.8145 -0.0864183
ltoes 16.8511 -0 0
rfemur -11.5507 -17.8227 20.7459
rtibia 46.2976 -0 0
rfoot -18.5565 -29.0997 -0.0792713
rtoes -25.5329 0 0
lowerback 0.901038 5.0713 0.266693
upperback -0.828148 6.76299 -3.15697
thorax -0.918371 3.39249 -3.46101
lowerneck -5.37526 -5.75303 0.0243819
upperneck -1.93952 -7.62711 4.45267
head 0.506562 -3.74315 1.217
lclavicle 5.08113e-15 -6.78776e-17 -2.53878e-33
lhumerus -55.3703 -10.6601 94.0044
lradius 67.4264 -0 0
lwrist 13.7935 0 0
lhand -18.7322 -3.27507 0.196456
lfingers 7.12502 -0 0
lthumb 7.5606 26.4943 0.173681
rclavicle 5.08113e-15 -6.78776e-17 -2.53878e-33
rhumerus -30.402 47.6031 -111.655
rradius 77.8535 -0 0
rwrist 4.44635 0 0
rhand -20.9336 -20.4323 -0.0419163
rfingers 7.12502 -0 0
rthumb 5.43434 -50.2425 -0.021559
788
root 1.7336 16.3891 19.5381 -3.85487 61.3921 -10.92
lfemur -36.101 10.7002 -10.5968
ltibia 43.9083 -0 0
lfoot -19.1376 19.6966 -0.0958677
ltoes 16.9494 -0 0
rfemur -10.9914 -17.1054 20.6697
rtibia 45.4778 -0 0
rfoot -18.6351 -28.6152 -0.0879452
rtoes -25.5816 0 0
lowerback 0.86676 5.12725 0.433798
upperback -0.817145 6.83985 -3.06301
thorax -0.872856 3.43081 -3.45001
lowerneck -5.3806 -5.62485 0.124984
upperneck -1.86188 -7.46657 4.35632
head 0.523469 -3.66311 1.17434
lclavicle 4.95507e-15 -7.75744e-17 -2.81613e-33
lhumerus -55.3128 -10.5196 93.8889
lradius 66.9682 -0 0
lwrist 13.918 0 0
lhand -18.3675 -3.01628 0.217947
lfingers 7.12502 -0 0
lthumb 7.9122 26.7317 0.192678
rclavicle 4.95507e-15 -7.75744e-17 -2.81613e-33
rhumerus -30.3657 47.528 -111.534
rradius 77.5303 -0 0
rwrist 4.23527 0 0
rhand -20.5088 -20.4797 -0.046501
rfingers 7.12502 -0 0
rthumb 5.84393 -50.2678 -0.0239168
789
root 1.7473 16.3937 19.6602 -3.27926 59.3761 -10.4588
lfemur -36.0307 10.3659 -10.1487
ltibia 43.0918 -0 0
lfoot -18.7851 19.5787 -0.104592
ltoes 17.0478 -0 0
rfemur -10.4352 -16.3875 20.601
rtibia 44.6579 -0 0
rfoot -18.7137 -28.1308 -0.0959543
rtoes -25.6303 0 0
lowerback 0.832643 5.1833 0.600883
upperback -0.806013 6.9167 -2.96902
thorax -0.827332 3.46911 -3.43898
lowerneck -5.38572 -5.49666 0.225552
upperneck -1.78455 -7.3059 4.26021
head 0.540314 -3.58304 1.13171
lclavicle 4.82901e-15 -8.72712e-17 -3.07214e-33
lhumerus -55.2557 -10.379 93.7735
lradius 66.51 -0 0
lwrist 14.0425 0 0
lhand -18.0026 -2.75736 0.237789
lfingers 7.12502 -0 0
lthumb 8.26388 26.9692 0.210217
rclavicle 4.82901e-15 -8.72712e-17 -3.07214e-33
rhumerus -30.3296 47.4529 -111.414
rradius 77.2071 -0 0
rwrist 4.0242 0 0
rhand -20.084 -20.5272 -0.050734
rfingers 7.12502 -0 0
rthumb 6.25351 -50.2931 -0.0260938
790
root 1.761 16.3983 19.7822 -2.76573 57.3581 -10.0608
lfemur -35.9632 10.0311 -9.7014
ltibia 42.2752 -0 0
lfoot -18.4326 19.4607 -0.11259
ltoes 17.1462 -0 0
rfemur -9.88186 -15.669 20.5399
rtibia 43.8381 -0 0
rfoot -18.7924 -27.6463 -0.103298
rtoes -25.679 0 0
lowerback 0.798687 5.23945 0.76795
upperback -0.794752 6.99353 -2.875
thorax -0.781798 3.50741 -3.42792
lowerneck -5.39061 -5.36845 0.326088
upperneck -1.70752 -7.1451 4.16436
head 0.557098 -3.50297 1.0891
lclavicle 4.70295e-15 -9.6968e-17 -3.30682e-33
lhumerus -55.1989 -10.2383 93.6584
lradius 66.0518 -0 0
lwrist 14.167 0 0
lhand -17.6377 -2.49831 0.255982
lfingers 7.12502 -0 0
lthumb 8.61563 27.2068 0.226298
rclavicle 4.70295e-15 -9.6968e-17 -3.30682e-33
rhumerus -30.2938 47.3777 -111.294
rradius 76.8838 -0 0
rwrist 3.81312 0 0
rhand -19.6593 -20.5747 -0.0546151
rfingers 7.12502 -0 0
rthumb 6.6631 -50.3185 -0.0280897
791
root 1.7747 16.403 19.9043 -2.30333 55.3384 -9.71521
lfemur -35.8984 9.69581 -9.25499
ltibia 41.4586 -0 0
lfoot -18.0801 19.3426 -0.119862
ltoes 17.2446 -0 0
rfemur -9.33122 -14.95 20.4861
rtibia 43.0183 -0 0
rfoot -18.8712 -27.1619 -0.109976
rtoes -25.7277 0 0
lowerback 0.764893 5.29569 0.934999
upperback -0.783362 7.07034 -2.78094
thorax -0.736255 3.5457 -3.41683
lowerneck -5.39528 -5.24024 0.426591
upperneck -1.63078 -6.98417 4.06876
head 0.573822 -3.42288 1.04652
lclavicle 4.5769e-15 -1.06665e-16 -3.52016e-33
lhumerus -55.1424 -10.0975 93.5435
lradius 65.5936 -0 0
lwrist 14.2915 0 0
lhand -17.2727 -2.23916 0.272525
lfingers 7.12502 -0 0
lthumb 8.96745 27.4445 0.24092
rclavicle 4.5769e-15 -1.06665e-16 -3.52016e-33
rhumerus -30.2583 47.3024 -111.174
rradius 76.5606 -0 0
rwrist 3.60205 0 0
rhand -19.2345 -20.6222 -0.058144
rfingers 7.12502 -0 0
rthumb 7.07269 -50.3438 -0.0299045
